<?xml version="1.0" encoding="UTF-8" standalone="no"?>
<!DOCTYPE svg PUBLIC "-//W3C//DTD SVG 1.1//EN" "http://www.w3.org/Graphics/SVG/1.1/DTD/svg11.dtd">
<svg width="100%" height="100%" viewBox="0 0 80 80" version="1.1" xmlns="http://www.w3.org/2000/svg" xmlns:xlink="http://www.w3.org/1999/xlink" xml:space="preserve" xmlns:serif="http://www.serif.com/" style="fill-rule:evenodd;clip-rule:evenodd;stroke-linejoin:round;stroke-miterlimit:2;">
    <g transform="matrix(1,0,0,1,-9589.696002,-4115.964062)">
        <g transform="matrix(1,0,0,1,9168,3335)">
            <g transform="matrix(0.037474,0,0,0.037474,461.668658,820.936719)">
                <g transform="matrix(1,0,0,1,-1066.666667,-1066.666667)">
                    <clipPath id="_clip1">
                        <rect x="0" y="0" width="2133.333" height="2133.333"/>
                    </clipPath>
                    <g clip-path="url(#_clip1)">
                        <g transform="matrix(21.333333,0,0,21.333333,0,0)">
                            <g transform="matrix(1.344573,0,0,1.354591,-17.229314,-17.728892)">
                                <path d="M84.01,79.998C84.009,78.319 82.648,76.955 80.968,76.955L19.033,76.955C17.353,76.955 15.991,78.319 15.991,79.998L15.991,83.869C15.991,85.55 17.353,86.911 19.033,86.911L80.968,86.911C82.649,86.911 84.01,85.55 84.01,83.869L84.01,79.998Z" style="fill:rgb(212,167,55);"/>
                            </g>
                            <g transform="matrix(1.344573,0,0,1.354591,-17.229314,-17.728892)">
                                <path d="M24.619,38.433L24.602,38.416L24.6,38.418C24.028,37.927 23.294,37.62 22.482,37.62C20.703,37.62 19.263,39.044 19.222,40.813L19.142,40.813L19.142,70.051L19.245,70.051C19.4,71.71 20.781,73.016 22.482,73.016C22.494,73.016 22.506,73.013 22.518,73.012L22.518,73.016L77.481,73.016L77.481,72.94C77.494,72.94 77.505,72.944 77.518,72.944C79.193,72.944 80.559,71.676 80.747,70.051L80.784,70.051L80.784,41.42C80.83,41.201 80.857,40.974 80.857,40.741C80.857,38.938 79.394,37.475 77.59,37.475C76.814,37.475 76.111,37.757 75.55,38.208L75.541,38.199L75.45,38.29C75.338,38.387 75.235,38.491 75.138,38.602L68.257,45.483L52.405,29.631L52.374,29.662C51.778,29.029 50.939,28.629 50.001,28.629C49.061,28.629 48.22,29.031 47.624,29.666L47.589,29.631L31.702,45.516L24.936,38.749C24.837,38.637 24.732,38.532 24.619,38.433ZM72.973,46.827L72.973,46.922L72.878,46.922L72.973,46.827Z" style="fill:rgb(212,167,55);"/>
                            </g>
                            <g transform="matrix(1.344573,0,0,1.354591,-17.229314,-17.728892)">
                                <circle cx="22.348" cy="27.13" r="6.042" style="fill:rgb(212,167,55);"/>
                            </g>
                            <g transform="matrix(1.344573,0,0,1.354591,-17.229314,-17.728892)">
                                <circle cx="77.348" cy="27.13" r="6.042" style="fill:rgb(212,167,55);"/>
                            </g>
                            <g transform="matrix(1.344573,0,0,1.354591,-17.229314,-17.728892)">
                                <circle cx="50.348" cy="19.13" r="6.042" style="fill:rgb(212,167,55);"/>
                            </g>
                        </g>
                    </g>
                </g>
            </g>
        </g>
    </g>
</svg>
